<svg xmlns="http://www.w3.org/2000/svg" width="30" height="40" viewBox="0 0 30 40"><defs><style>.a{fill:#f6f6f6;}</style></defs><path class="a" d="M2.5-24.375V-35H-13.125A1.871,1.871,0,0,0-15-33.125V3.125A1.871,1.871,0,0,0-13.125,5h26.25A1.871,1.871,0,0,0,15,3.125V-22.5H4.375A1.88,1.88,0,0,1,2.5-24.375ZM7.592-8.862H-7.592c-1.066,0-1.116-2.138,0-2.138H7.592C8.708-11,8.9-8.862,7.592-8.862ZM14.453-26.8,6.8-34.453A1.874,1.874,0,0,0,5.477-35H5v10H15v-.477A1.869,1.869,0,0,0,14.453-26.8Z" transform="translate(15 35)"/></svg>