<svg xmlns="http://www.w3.org/2000/svg" xmlns:xlink="http://www.w3.org/1999/xlink" width="263" height="226" viewBox="0 0 263 226"><defs><style>.a{fill:url(#a);}.b{fill:url(#b);}</style><radialGradient id="a" cx="0" cy="0" r="1" gradientUnits="objectBoundingBox"><stop offset="0" stop-color="#1e96ff"/><stop offset="1" stop-color="#1e96ff" stop-opacity="0"/></radialGradient><radialGradient id="b" cx="1" cy="0.97" r="0.894" gradientTransform="translate(2 1.525) rotate(180) scale(1 0.573)" xlink:href="#a"/></defs><g transform="translate(-660 -1170)"><path class="a" d="M20,226A20,20,0,0,1,0,206V0H85A10.012,10.012,0,0,1,95,10V25H68v8H243a20,20,0,0,1,20,20V206a20,20,0,0,1-20,20ZM4,202a20.023,20.023,0,0,0,20,20H239a20.023,20.023,0,0,0,20-20V57a20.023,20.023,0,0,0-20-20H64V21H91V14c0-5.471-.452-10-6-10H4Z" transform="translate(660 1170)"/><path class="b" d="M20,226A20,20,0,0,1,0,206V0H85A10.012,10.012,0,0,1,95,10V25H68v8H243a20,20,0,0,1,20,20V206a20,20,0,0,1-20,20ZM4,202a20.023,20.023,0,0,0,20,20H239a20.023,20.023,0,0,0,20-20V57a20.023,20.023,0,0,0-20-20H64V21H91V14c0-5.471-.452-10-6-10H4Z" transform="translate(660 1170)"/></g></svg>