<?xml version="1.0" encoding="utf-8"?>
<!-- Generator: Adobe Illustrator 25.2.3, SVG Export Plug-In . SVG Version: 6.00 Build 0)  -->
<svg version="1.1" id="Layer_1" xmlns="http://www.w3.org/2000/svg" xmlns:xlink="http://www.w3.org/1999/xlink" x="0px" y="0px"
	 viewBox="0 0 48 48" style="enable-background:new 0 0 48 48;" xml:space="preserve">
<style type="text/css">
	.st0{fill:#D8D8D8;}
</style>
<path class="st0" d="M13.5,3.5C12.7,3.5,12,4.2,12,5s0.6,1.5,1.5,1.5C14.3,6.5,15,5.8,15,5S14.3,3.5,13.5,3.5z M9,3.5
	C8.2,3.5,7.5,4.2,7.5,5S8.1,6.5,9,6.5c0.8,0,1.5-0.7,1.5-1.5S9.8,3.5,9,3.5z M4.5,3.5C3.7,3.5,3,4.2,3,5s0.7,1.5,1.5,1.5S6,5.8,6,5
	S5.3,3.5,4.5,3.5z M19.3,21.6v-2c0-0.1,0-0.5-0.3-0.8c-0.3-0.2-0.8-0.2-1.1,0L10,22.5c-0.4,0.1-0.6,0.5-0.6,0.9v2.2
	c0,0.4,0.2,0.7,0.6,0.9l7.9,3.8c0.1,0.1,0.3,0.1,0.4,0.1c0.5,0,1-0.4,1-1v-2c0-0.5-0.2-0.8-0.6-1l-4.3-1.9l4.3-1.9
	C19.1,22.4,19.3,22,19.3,21.6z M28.7,13.4H27c-0.4,0-0.8,0.3-1,0.7l-7.4,19.1c-0.1,0.2-0.1,0.3-0.1,0.4c0,0.6,0.5,1,1,1h1.7
	c0.4,0,0.8-0.3,1-0.7l7.4-19.1c0-0.1,0.1-0.2,0.1-0.4C29.7,13.8,29.2,13.4,28.7,13.4z M38.1,22.7L30.2,19c-0.4-0.2-0.9-0.2-1.2,0.1
	c-0.3,0.2-0.3,0.5-0.3,0.6v1.9c0,0.4,0.2,0.8,0.6,1l4.4,1.9l-4.4,1.9c-0.4,0.2-0.6,0.5-0.6,1v2c0,0.1,0,0.3,0.1,0.4
	c0.2,0.5,0.9,0.7,1.4,0.5l7.9-3.6c0.4-0.2,0.6-0.5,0.6-0.9v-2.2C38.7,23.2,38.5,22.8,38.1,22.7z"/>
<path class="st0" d="M45,3.5v33c0,4.4-3.6,8-8,8H11c-4.4,0-8-3.6-8-8v-27h3V36c0,3,2.5,5.5,5.5,5.5h25c3,0,5.5-2.5,5.5-5.5V6.5H18.5
	v-3H45z"/>
</svg>
