<svg xmlns="http://www.w3.org/2000/svg" width="96.6" height="34.7" fill="#fff"><path  d="M15 34.7V23c-1.3 1.7-3.2 2.5-5.8 2.5-2.7 0-5.1-1.2-6.7-3.1C.9 20.7 0 18.2 0 15.6c0-4.9 3.7-10 9.2-10 .7 0 1.4.1 2.5.4 1.1.3 2.3 1.1 3.2 2.2h.1V6h5.5v28.6H15zm.2-19.1c0-1.4-.5-2.6-1.4-3.5-.9-.9-2-1.4-3.4-1.4-1.3 0-2.4.4-3.4 1.4-.9.9-1.4 2.1-1.4 3.5s.5 2.6 1.4 3.5c.9.9 2 1.4 3.4 1.4s2.5-.5 3.4-1.4c.9-.9 1.4-2.1 1.4-3.5zM27.7 6v10.7c0 2.2 1.1 3.7 3.4 3.7 1.1 0 2-.3 2.5-1 .6-.7.9-1.5.9-2.6V6h5.6v19.2h-5.5v-2.4h-.1c-1.3 1.9-3 2.8-5.3 2.8s-4.2-.9-5.3-2.3c-1.1-1.4-1.7-3.2-1.7-5.2V6h5.5zM43.4 24c-1.3-1.1-1.9-2.5-1.9-4.2v-.2c0-2.7 1.7-4.3 3.9-5.1 1.5-.6 3-.8 4.6-.8h1.9c1 0 1.5-.5 1.5-1.3 0-1.4-1.1-2.4-3-2.4-1.7 0-3 1-3.4 2.6l-4.9-1.1c.2-1.3.8-2.4 1.7-3.4.8-.9 1.9-1.6 3.1-2 1.2-.4 2.5-.7 3.9-.7 4.7 0 8.3 2.7 8.3 7.8V22c0 1.2.1 2.2.2 3.1h-5.2c-.1-.5-.1-1.3-.1-2.4h-.1c-1.3 1.8-3.2 2.8-5.7 2.8-2.1.1-3.6-.5-4.8-1.5zm8.9-3.6c.7-.7 1-1.6 1-2.6v-.5h-3.4c-.7 0-1.3.2-1.9.6-.6.4-.9.9-.9 1.6 0 1.3 1 2 2.4 2 1.1 0 2.1-.4 2.8-1.1zM72.2 11.5c-.5-.1-1.1-.2-1.8-.2-2.8 0-4.6 2-4.6 5.4v8.4h-5.5V6h5.3v2.8c1-2.1 2.9-3 5-3 .5 0 1 .1 1.5.2v5.5zM82.6 10.9v7.3c0 1.5.9 2.5 2.7 2.5.4 0 1.1 0 2-.2V25c-.9.3-2 .5-3.4.5-4.6 0-6.9-2.4-6.9-7v-7.6h-3.7V6h3.8V0h5.5v6h4.7v4.9h-4.7zM90 24.5c-.8-.7-1.2-1.7-1.2-2.7 0-1.1.4-2 1.2-2.8.8-.7 1.7-1.1 2.7-1.1 1.1 0 2 .4 2.8 1.1.7.8 1.1 1.7 1.1 2.8 0 1-.4 2-1.1 2.7-.8.8-1.7 1.2-2.8 1.2-1.1-.1-2-.5-2.7-1.2z"/></svg>