<svg xmlns="http://www.w3.org/2000/svg" width="39" height="37" viewBox="0 0 39 37"><defs><style>.a{fill:#d8d8d8;stroke:rgba(0,0,0,0);}</style></defs><path class="a" d="M-635.5-2156.5v-14h-20v14h-5v-14h-3a1,1,0,0,1-1-1v-11a1,1,0,0,1,1-1h36a1,1,0,0,1,1,1v11a1,1,0,0,1-1,1h-3v14Zm-2.885-17h6l2.882-5.336v-1.664h-5.116Zm-12,0h6l3.779-7h-6.013Zm-11.115-1.644v1.644h5.119l3.779-7h-6.013Zm8.5,13.643v-3h15v3Zm17-28a3,3,0,0,1,3-3,3,3,0,0,1,3,3,3,3,0,0,1-3,3A3,3,0,0,1-636-2189.5Zm-25,0a3,3,0,0,1,3-3,3,3,0,0,1,3,3,3,3,0,0,1-3,3A3,3,0,0,1-661-2189.5Z" transform="translate(665 2193)"/></svg>