<svg xmlns="http://www.w3.org/2000/svg" xmlns:xlink="http://www.w3.org/1999/xlink" width="85" height="85" viewBox="0 0 85 85"><defs><style>.a{fill:#0f192f;}.b{fill:#124470;}.c{fill:#1e96ff;}.d{filter:url(#c);}.e{filter:url(#a);}</style><filter id="a" x="0" y="0" width="75" height="75" filterUnits="userSpaceOnUse"><feOffset dx="-5" dy="-5" input="SourceAlpha"/><feGaussianBlur stdDeviation="2.5" result="b"/><feFlood flood-color="#162547"/><feComposite operator="in" in2="b"/><feComposite in="SourceGraphic"/></filter><filter id="c" x="10" y="10" width="75" height="75" filterUnits="userSpaceOnUse"><feOffset dx="5" dy="5" input="SourceAlpha"/><feGaussianBlur stdDeviation="2.5" result="d"/><feFlood flood-color="#060d1e"/><feComposite operator="in" in2="d"/><feComposite in="SourceGraphic"/></filter></defs><g transform="translate(-517.21 -513.78)"><g transform="translate(503.71 504.28)"><g class="e" transform="matrix(1, 0, 0, 1, 13.5, 9.5)"><circle class="a" cx="30" cy="30" r="30" transform="translate(12.5 12.5)"/></g><g class="d" transform="matrix(1, 0, 0, 1, 13.5, 9.5)"><circle class="a" cx="30" cy="30" r="30" transform="translate(12.5 12.5)"/></g></g><path class="b" d="M576.08,563.55c-11.71,10.42-16,14.77-17.62,16.73a23.129,23.129,0,0,1-2.79-.32c-1.97-.6-4.6-1.56-7.17-2.57l10.1-11.21a9.947,9.947,0,0,0,10.23-5.96Z"/><path class="c" d="M581.03,564.51l1.73-1.54a23.94,23.94,0,0,1-13.72,15.45,22.455,22.455,0,0,1-4.73,1.44C568.12,576.14,574.78,570.04,581.03,564.51Z"/><path class="c" d="M582.95,562.29l-13.32-6.11a9.832,9.832,0,0,0-2.77-6.74l11.47-8.27a24.051,24.051,0,0,1,4.62,21.12Z"/><path class="c" d="M554.49,564.76l-9.48,10.51a24,24,0,0,1,5.35-41.07,23.222,23.222,0,0,1,5.08-1.51L542.6,553.06l7.18,2.93c-.01.11-.01.21-.01.32A9.9,9.9,0,0,0,554.49,564.76Z"/><path class="b" d="M548.53,551.16l11.87-18.84a23.365,23.365,0,0,1,4.79.62,24.059,24.059,0,0,1,9.33,4.49c.35.26.68.54,1.01.82l-12.21,8.81a9.935,9.935,0,0,0-12.59,5Z"/></g></svg>