<?xml version="1.0" encoding="utf-8"?>
<svg version="1.1" id="ic_mail" xmlns="http://www.w3.org/2000/svg" xmlns:xlink="http://www.w3.org/1999/xlink" x="0px" y="0px"
	 width="24px" height="24px" style="enable-background:new 0 0 24 24;" xml:space="preserve">
<style type="text/css">
	.st0{fill:#D8D8D8;}
</style>
<path id="ic_mail-2" class="st0" d="M20.1,4.5H3.9C2.8,4.5,2,5.3,2,6.4l0,0v11.2c0,1,0.8,1.9,1.9,1.9h16.2c1,0,1.9-0.8,1.9-1.9V6.4
	C22,5.3,21.2,4.5,20.1,4.5L20.1,4.5z M20.1,6.4V8c-0.9,0.7-2.3,1.8-5.3,4.2c-0.7,0.5-2,1.8-2.9,1.7c-0.9,0-2.2-1.2-2.9-1.7
	C6.1,9.8,4.8,8.7,3.9,8V6.4H20.1z M3.9,17.6v-7.2C4.8,11.1,6,12.1,8,13.6c0.9,0.7,2.3,2.2,4,2.1c1.7,0,3.1-1.5,4-2.1
	c1.9-1.5,3.2-2.5,4.1-3.2v7.2H3.9z"/>
</svg>
