<?xml version="1.0" encoding="utf-8"?>
<!-- Generator: Adobe Illustrator 25.2.3, SVG Export Plug-In . SVG Version: 6.00 Build 0)  -->
<svg version="1.1" id="Layer_1" xmlns="http://www.w3.org/2000/svg" xmlns:xlink="http://www.w3.org/1999/xlink" x="0px" y="0px"
	 viewBox="0 0 48 48" style="enable-background:new 0 0 48 48;" xml:space="preserve">
<style type="text/css">
	.st0{fill:#F6F6F6;}
</style>
<path class="st0" d="M26.5,14.6V4H10.9C9.8,4,9,4.8,9,5.9c0,0,0,0,0,0v36.2c0,1,0.8,1.9,1.9,1.9c0,0,0,0,0,0h26.2
	c1,0,1.9-0.8,1.9-1.9c0,0,0,0,0,0V16.5H28.4C27.3,16.5,26.5,15.7,26.5,14.6z M32.5,30.1H14.7c-0.8,0-1.5-0.7-1.5-1.5v0
	c0-0.8,0.7-1.5,1.5-1.5h17.8c0.8,0,1.5,0.7,1.5,1.5v0C34,29.5,33.3,30.1,32.5,30.1z M26.2,36.1H14.7c-0.8,0-1.5-0.7-1.5-1.5v0
	c0-0.8,0.7-1.5,1.5-1.5h11.5c0.8,0,1.5,0.7,1.5,1.5v0C27.7,35.5,27,36.1,26.2,36.1z M17.5,16.7L17.5,16.7c-2.4,0-4.3-1.5-4.3-3.3
	v-1.9c0-1.8,1.9-3.3,4.3-3.3h0c2.4,0,4.3,1.5,4.3,3.3v1.9C21.8,15.2,19.9,16.7,17.5,16.7z M32.5,24.1H14.7c-0.8,0-1.5-0.7-1.5-1.5v0
	c0-0.8,0.7-1.5,1.5-1.5h17.8c0.8,0,1.5,0.7,1.5,1.5v0C34,23.5,33.3,24.1,32.5,24.1z M38.5,12.2l-7.7-7.7C30.4,4.2,30,4,29.5,4H29v10
	h10v-0.5C39,13,38.8,12.6,38.5,12.2z"/>
</svg>
