<?xml version="1.0" encoding="utf-8"?>
<!-- Generator: Adobe Illustrator 25.2.3, SVG Export Plug-In . SVG Version: 6.00 Build 0)  -->
<svg version="1.1" id="Layer_1" xmlns="http://www.w3.org/2000/svg" xmlns:xlink="http://www.w3.org/1999/xlink" x="0px" y="0px"
	 viewBox="0 0 48 48" style="enable-background:new 0 0 48 48;" xml:space="preserve">
<style type="text/css">
	.st0{fill:#F6F6F6;}
</style>
<path class="st0" d="M9,15.3v1.8c0,1,0.8,1.9,1.9,1.9c0,0,0,0,0,0h26.2c1,0,1.9-0.8,1.9-1.9c0,0,0,0,0,0v-1.8H9z M13.3,9v3.4h21.3V9
	H13.3z M32.5,31.2l-7.5,7.5c-0.5,0.5-1.4,0.5-1.9,0l-7.5-7.5c-0.5-0.5-0.5-1.3,0-1.8c0.2-0.2,0.6-0.4,0.9-0.4h5.1v-6.2
	c0-0.7,0.6-1.2,1.2-1.2h2.5c0.7,0,1.2,0.6,1.2,1.2V29h5.1c0.7,0,1.3,0.6,1.3,1.2C32.8,30.6,32.7,30.9,32.5,31.2z"/>
</svg>
