<?xml version="1.0" encoding="utf-8"?>
<!-- Generator: Adobe Illustrator 25.2.3, SVG Export Plug-In . SVG Version: 6.00 Build 0)  -->
<svg version="1.1" id="Layer_1" xmlns="http://www.w3.org/2000/svg" xmlns:xlink="http://www.w3.org/1999/xlink" x="0px" y="0px"
	 viewBox="0 0 48 48" style="enable-background:new 0 0 48 48;" xml:space="preserve">
<style type="text/css">
	.st0{fill:#D8D8D8;}
</style>
<path class="st0" d="M34,42V28H14v14H9V28H6c-0.6,0-1-0.4-1-1V16c0-0.6,0.4-1,1-1h36c0.6,0,1,0.4,1,1v11c0,0.6-0.4,1-1,1h-3v14H34z
	 M31.1,25h6l2.9-5.3V18h-5.1L31.1,25z M19.1,25h6l3.8-7h-6L19.1,25z M8,23.4V25h5.1l3.8-7h-6L8,23.4z M16.5,37v-3h15v3H16.5z
	 M33.5,9c0-1.7,1.3-3,3-3s3,1.3,3,3s-1.3,3-3,3C34.8,12,33.5,10.7,33.5,9L33.5,9z M8.5,9c0-1.7,1.3-3,3-3s3,1.3,3,3s-1.3,3-3,3
	C9.8,12,8.5,10.7,8.5,9L8.5,9z"/>
</svg>
