<?xml version="1.0" encoding="utf-8"?>
<svg version="1.1" id="ic_github" xmlns="http://www.w3.org/2000/svg" x="0px" y="0px"
	 width="24px" height="24px" style="enable-background:new 0 0 24 24;" xml:space="preserve">
<style type="text/css">
	.st0{fill:#D8D8D8;}
</style>
<path id="ic_github-2" class="st0" d="M8.8,17.8c0-0.1-0.1-0.2-0.2-0.1c-0.1,0-0.2,0.1-0.2,0.1c0,0.1,0.1,0.2,0.2,0.1
	C8.7,17.9,8.8,17.8,8.8,17.8z M7.6,17.6c0,0.1,0.1,0.2,0.2,0.2c0.1,0,0.2,0,0.2-0.1c0-0.1-0.1-0.2-0.2-0.2
	C7.7,17.5,7.6,17.5,7.6,17.6z M9.3,17.5c-0.1,0-0.2,0.1-0.2,0.2c0,0.1,0.1,0.1,0.2,0.1c0.1,0,0.2-0.1,0.2-0.2
	C9.5,17.6,9.4,17.5,9.3,17.5L9.3,17.5z M11.9,2.6c-5.2-0.1-9.5,4-9.6,9.2c0,0.1,0,0.2,0,0.4c0,4.2,2.6,8,6.6,9.3
	c0.5,0.1,0.7-0.2,0.7-0.5c0-0.3,0-1.6,0-2.4c0,0-2.7,0.6-3.3-1.2c0,0-0.4-1.1-1.1-1.4c0,0-0.9-0.6,0.1-0.6c0.6,0.1,1.2,0.5,1.5,1
	c0.5,1,1.8,1.4,2.8,0.8c0,0,0,0,0.1,0c0.1-0.5,0.3-1,0.6-1.3c-2.2-0.2-4.4-0.6-4.4-4.3c0-0.9,0.3-1.7,0.9-2.3
	C6.5,8.4,6.5,7.4,6.9,6.6c0.8-0.3,2.7,1.1,2.7,1.1c0.8-0.2,1.6-0.3,2.5-0.3c0.8,0,1.7,0.1,2.5,0.3c0,0,1.9-1.3,2.7-1.1
	c0.4,0.8,0.4,1.8,0.1,2.7c0.7,0.6,1,1.4,1,2.3c0,3.8-2.3,4.1-4.5,4.3c0.5,0.5,0.7,1.1,0.7,1.8c0,1.3,0,2.9,0,3.3
	c0,0.3,0.2,0.6,0.7,0.5c4-1.4,6.6-5.1,6.6-9.3c0-5.3-4.3-9.6-9.6-9.5C12,2.6,11.9,2.6,11.9,2.6L11.9,2.6z M6.1,16
	c-0.1,0,0,0.1,0,0.2c0.1,0.1,0.2,0.1,0.2,0c0-0.1,0-0.1,0-0.2S6.2,16,6.1,16z M5.7,15.7c0,0.1,0,0.1,0.1,0.2c0.1,0,0.1,0,0.2,0
	c0,0,0,0,0,0c0-0.1,0-0.1-0.1-0.2C5.8,15.7,5.7,15.7,5.7,15.7L5.7,15.7z M7,17.1c-0.1,0.1,0,0.2,0.1,0.2c0.1,0.1,0.2,0.1,0.3,0
	c0.1-0.1,0-0.2-0.1-0.2C7.1,17.1,7,17,7,17.1z M6.5,16.5c-0.1,0-0.1,0.1,0,0.2s0.2,0.1,0.2,0.1c0.1-0.1,0.1-0.2,0-0.2
	C6.7,16.5,6.6,16.5,6.5,16.5z"/>
</svg>
