<?xml version="1.0" encoding="utf-8"?>
<svg version="1.1" id="ic-instagram" xmlns="http://www.w3.org/2000/svg" x="0px"
	 y="0px" width="24px" height="24px" style="enable-background:new 0 0 24 24;" xml:space="preserve">
<style type="text/css">
	.st0{fill:#D8D8D8;}
</style>
<path id="ic-instagram-2" class="st0" d="M12,7.5c-2.5,0-4.5,2-4.5,4.5c0,0,0,0,0,0c0,2.5,2,4.5,4.5,4.5c0,0,0,0,0,0
	c2.5,0,4.5-2,4.5-4.5c0,0,0,0,0,0C16.5,9.5,14.5,7.5,12,7.5C12,7.5,12,7.5,12,7.5z M12,14.9c-1.6,0-2.9-1.3-2.9-2.9
	c0-1.6,1.3-2.9,2.9-2.9c1.6,0,2.9,1.3,2.9,2.9C14.9,13.6,13.6,14.9,12,14.9z M17.7,7.3c0-0.6-0.5-1-1-1c-0.6,0-1,0.5-1,1
	c0,0.6,0.5,1,1,1c0,0,0,0,0,0C17.3,8.4,17.7,7.9,17.7,7.3C17.7,7.3,17.7,7.3,17.7,7.3z M20.7,8.4c0-1.4-0.5-2.7-1.4-3.7
	c-1-0.9-2.3-1.4-3.7-1.4c-1.4-0.1-5.8-0.1-7.2,0C7,3.3,5.7,3.8,4.7,4.7C3.8,5.7,3.3,7,3.3,8.4c-0.1,1.4-0.1,5.8,0,7.2
	c0,1.4,0.5,2.7,1.4,3.7c1,0.9,2.3,1.4,3.7,1.4c1.4,0.1,5.8,0.1,7.2,0c1.4,0,2.7-0.5,3.7-1.4c0.9-1,1.4-2.3,1.4-3.7
	C20.8,14.2,20.8,9.8,20.7,8.4L20.7,8.4z M18.8,17.2c-0.3,0.8-0.9,1.4-1.7,1.7c-1.2,0.5-3.9,0.4-5.2,0.4s-4,0.1-5.2-0.4
	c-0.8-0.3-1.4-0.9-1.7-1.7C4.7,16,4.8,13.3,4.8,12S4.7,8,5.2,6.8c0.3-0.8,0.9-1.4,1.7-1.7C8,4.7,10.7,4.8,12,4.8s4-0.1,5.2,0.4
	c0.8,0.3,1.4,0.9,1.7,1.7c0.5,1.2,0.4,3.9,0.4,5.2S19.3,16,18.8,17.2L18.8,17.2z"/>
</svg>
