<?xml version="1.0" encoding="utf-8"?>
<svg version="1.1" id="ic_linkedin" xmlns="http://www.w3.org/2000/svg" xmlns:xlink="http://www.w3.org/1999/xlink" x="0px"
	 y="0px" width="24px" height="24px" style="enable-background:new 0 0 24 24;" xml:space="preserve">
<style type="text/css">
	.st0{fill:#D8D8D8;}
</style>
<path id="ic_linkedin-2" class="st0" d="M19.5,3.2h-15c-0.7,0-1.3,0.6-1.3,1.3c0,0,0,0,0,0v15c0,0.7,0.6,1.3,1.2,1.3h15
	c0.7,0,1.3-0.6,1.3-1.3v-15C20.8,3.8,20.2,3.3,19.5,3.2z M8.5,18.2H5.9V9.9h2.6L8.5,18.2L8.5,18.2z M7.2,8.8c-0.8,0-1.5-0.7-1.5-1.5
	s0.7-1.5,1.5-1.5c0.8,0,1.5,0.7,1.5,1.5C8.7,8.1,8.1,8.8,7.2,8.8L7.2,8.8z M18.3,18.2h-2.6v-4.1c0-1,0-2.2-1.3-2.2
	c-1.4,0-1.6,1.1-1.6,2.1v4.1h-2.6V9.9h2.5V11h0c0.5-0.9,1.5-1.4,2.5-1.3c2.6,0,3.1,1.7,3.1,4L18.3,18.2z"/>
</svg>
